<?xml version="1.0" ?><!DOCTYPE svg  PUBLIC '-//W3C//DTD SVG 1.1//EN'  'http://www.w3.org/Graphics/SVG/1.1/DTD/svg11.dtd'><svg enable-background="new -27 24 100 100" height="100px" id="supportmale" version="1.1" viewBox="-27 24 100 100" width="100px" xml:space="preserve" xmlns="http://www.w3.org/2000/svg" xmlns:sketch="http://www.bohemiancoding.com/sketch/ns" xmlns:xlink="http://www.w3.org/1999/xlink"><g><g><circle cx="23" cy="74" fill="#F5EEE5" r="50"/><g><defs><circle cx="23" cy="74" id="SVGID_1_" r="50"/></defs><clipPath id="SVGID_2_"><use overflow="visible" xlink:href="#SVGID_1_"/></clipPath><path clip-path="url(#SVGID_2_)" d="M38,99.9l27.9,7.7c3.2,1.1,5.7,3.5,7.1,6.6v9.8H-27v-9.8      c1.3-3.1,3.9-5.5,7.1-6.6L8,99.9V85h30V99.9z" fill="#E6C19C"/><g clip-path="url(#SVGID_2_)"><defs><path d="M38,99.9l27.9,7.7c3.2,1.1,5.7,3.5,7.1,6.6v9.8H-27v-9.8c1.3-3.1,3.9-5.5,7.1-6.6L8,99.9V85h30V99.9z" id="SVGID_3_"/></defs><clipPath id="SVGID_4_"><use overflow="visible" xlink:href="#SVGID_3_"/></clipPath><path clip-path="url(#SVGID_4_)" d="M23,102c-1.7,0-3.9-0.4-5.4-1.1c-1.7-0.9-8-6.1-10.2-8.3       c-2.8-3-4.2-6.8-4.6-13.3c-0.4-6.5-2.1-29.7-2.1-35c0-7.5,5.7-19.2,22.1-19.2l0.1,0l0,0l0,0l0.1,0       c16.5,0.1,22.1,11.7,22.1,19.2c0,5.3-1.7,28.5-2.1,35c-0.4,6.5-1.8,10.2-4.6,13.3c-2.1,2.3-8.4,7.4-10.2,8.3       C26.9,101.6,24.7,102,23,102L23,102z" fill="#D4B08C"/><path clip-path="url(#SVGID_4_)" d="M-27,82H73v42H-27V82z M23,112c11,0,20-6.3,20-14s-9-14-20-14S3,90.3,3,98       S12,112,23,112z" fill="#249CF2"/></g></g><path d="M23,98c-1.5,0-3.5-0.3-4.8-0.9c-1.6-0.7-7.2-4.6-9.1-6.3c-2.5-2.3-3.8-5.1-4.2-10S3,58.5,3,54.5     C3,48.8,8.1,40,23,40l0,0l0,0l0,0l0,0C37.9,40,43,48.8,43,54.5c0,4-1.5,21.5-1.9,26.4s-1.6,7.7-4.2,10c-1.9,1.7-7.6,5.6-9.1,6.3     C26.5,97.7,24.5,98,23,98L23,98z" fill="#F2CEA5"/><path d="M41,65.5c0,0,1.6,0.4,4.5-0.6c0.4-1.8,1.5-7,1.5-9.9s-0.3-5.7-1.9-8.1c-1.8-2.6-5.6-4.1-7.6-4.1     c-2.3,1.4-7.7,4.6-9.4,6.5c-0.9,1,0.4,1.8,0.4,1.8s1.2-0.5,1.7-0.6c2.5-0.7,6.3-0.3,8.4,1.6c2.4,2.2,2.4,7.4,2.5,8.8     C41,62.2,41,65.5,41,65.5z" fill="#D98C21"/><path d="M0.5,65c2.9,1,4.5,3.4,4.5,3.4s0-5.2,0-6.3c0-1.6,0-6.5,2.4-9.7c3.2-4.3,8.4-5.3,11.1-3.5     c1.4,0.9,6.1,5.5,11.1,1.7c3-2.3,8.5-7.5,8.5-7.5s-2.9-8.9-16.1-7.9c-5.6,0.5-11.8-0.9-11.8-0.9s-0.1,2.5,0.9,3.8     C2.8,40.4,0.1,46.4-0.7,51c-0.2,0.9-0.3,1.8-0.3,2.7c0,0.5,0,1,0,1.4C-1,58,0.1,63.1,0.5,65z" fill="#E6A422"/><path d="M30,84l-14,0c-0.4,0-0.6,0.4-0.4,0.8c1.3,2.3,3.7,3.5,6.7,3.7c3.1,0.2,6.5-1.3,8.1-3.7     C30.6,84.5,30.4,84,30,84z" fill="#A3705F"/><circle cx="32" cy="69" fill="#262626" r="2"/><circle cx="14" cy="69" fill="#262626" r="2"/><path d="M8,66c0,0,1.1-3,6.1-3c3.4,0,5.4,1.5,6.4,3" fill="none" stroke="#CC9872" stroke-width="2"/><path d="M38.1,66c0,0-1.1-3-6.1-3c-4.8,0-7,3-7,5c0,1.9,0,9,0,9" fill="none" stroke="#BB8660" stroke-width="2"/><path d="M46,61c0-12.7-10.3-23-23-23C10.3,38,0,48.3,0,61v8h3v-8c-0.1-11,8.9-20.1,20-20c11.1-0.1,20.1,9,20,20v9     h3V61z" fill="#6B363E"/><path d="M44,79.2C43.9,92.3,31,93,31,93" fill="none" stroke="#6B363E" stroke-width="2"/><path d="M25.3,91.9l5.8-1.6c1.1-0.3,2.2,0.3,2.4,1.4l0.5,1.9c0.3,1.1-0.3,2.2-1.4,2.4l-5.8,1.6     c-1.1,0.3-2.2-0.3-2.4-1.4l-0.5-1.9C23.6,93.3,24.3,92.2,25.3,91.9z" fill="#452228"/><path d="M5,82c-5.1-0.5-9-4.8-9-10s3.9-9.4,9-10V82z" fill="#6B363E"/><g><defs><path d="M5,82c-5.1-0.5-9-4.8-9-10s3.9-9.4,9-10V82z" id="SVGID_5_"/></defs><clipPath id="SVGID_6_"><use overflow="visible" xlink:href="#SVGID_5_"/></clipPath><rect clip-path="url(#SVGID_6_)" fill="#452228" height="20" width="7" x="-4" y="62"/></g><path d="M41,82c5.1-0.5,9-4.8,9-10s-3.9-9.4-9-10V82z" fill="#6B363E"/><g><defs><path d="M41,82c5.1-0.5,9-4.8,9-10s-3.9-9.4-9-10V82z" id="SVGID_7_"/></defs><clipPath id="SVGID_8_"><use overflow="visible" xlink:href="#SVGID_7_"/></clipPath><rect clip-path="url(#SVGID_8_)" fill="#452228" height="20" width="8" x="43" y="62"/></g></g></g></svg>